<svg width="144" height="144" viewBox="0 0 144 144" fill="none" xmlns="http://www.w3.org/2000/svg">
<g id="Container">
<path id="Ellipse" d="M144 72C144 111.765 111.765 144 72 144C32.2355 144 0 111.765 0 72C0 32.2355 32.2355 0 72 0C111.765 0 144 32.2355 144 72ZM14.4 72C14.4 103.812 40.1884 129.6 72 129.6C103.812 129.6 129.6 103.812 129.6 72C129.6 40.1884 103.812 14.4 72 14.4C40.1884 14.4 14.4 40.1884 14.4 72Z" fill="#F5F5F5"/>
<path id="Ellipse_2" d="M72 0C86.2403 1.69813e-07 100.161 4.22273 112.001 12.1342C123.841 20.0457 133.07 31.2905 138.519 44.4468C143.969 57.6031 145.395 72.0799 142.617 86.0465C139.838 100.013 132.981 112.842 122.912 122.912C112.842 132.981 100.013 139.838 86.0465 142.617C72.0799 145.395 57.6031 143.969 44.4468 138.519C31.2905 133.07 20.0456 123.841 12.1342 112.001C4.22273 100.161 -3.39627e-07 86.2402 0 72H14.4C14.4 83.3922 17.7782 94.5286 24.1073 104.001C30.4365 113.473 39.4324 120.856 49.9574 125.215C60.4825 129.575 72.0639 130.716 83.2372 128.493C94.4105 126.271 104.674 120.785 112.729 112.729C120.785 104.674 126.271 94.4105 128.493 83.2372C130.716 72.0639 129.575 60.4825 125.215 49.9574C120.856 39.4324 113.473 30.4365 104.001 24.1073C94.5286 17.7782 83.3922 14.4 72 14.4V0Z" fill="url(#paint0_linear_312_456)"/>
</g>
<defs>
<linearGradient id="paint0_linear_312_456" x1="-2.42408e-07" y1="72.6857" x2="144" y2="72.6857" gradientUnits="userSpaceOnUse">
<stop stop-color="#A855F7"/>
<stop offset="1" stop-color="#3B82F6"/>
</linearGradient>
</defs>
</svg>
