<svg width="224" height="224" viewBox="0 0 224 224" fill="none" xmlns="http://www.w3.org/2000/svg">
<g id="Container">
<path id="Ellipse" d="M224 112C224 173.856 173.856 224 112 224C50.1441 224 0 173.856 0 112C0 50.1441 50.1441 0 112 0C173.856 0 224 50.1441 224 112ZM22.4 112C22.4 161.485 62.5153 201.6 112 201.6C161.485 201.6 201.6 161.485 201.6 112C201.6 62.5153 161.485 22.4 112 22.4C62.5153 22.4 22.4 62.5153 22.4 112Z" fill="#F5F5F5"/>
<path id="Ellipse_2" d="M112 0C132.655 2.46312e-07 152.908 5.71194 170.52 16.5043C188.131 27.2967 202.415 42.7491 211.793 61.1531C221.17 79.5571 225.275 100.196 223.655 120.787C222.034 141.379 214.751 161.121 202.61 177.832C190.469 194.542 173.944 207.57 154.861 215.475C135.778 223.379 114.88 225.852 94.4793 222.621C74.0783 219.39 54.9682 210.58 39.2618 197.165C23.5554 183.751 11.8645 166.254 5.48167 146.61L26.7853 139.688C31.8916 155.403 41.2443 169.401 53.8095 180.132C66.3746 190.864 81.6627 197.912 97.9835 200.497C114.304 203.082 131.022 201.103 146.288 194.78C161.555 188.456 174.775 178.034 184.488 164.666C194.201 151.297 200.027 135.503 201.324 119.03C202.62 102.557 199.336 86.0457 191.834 71.3224C184.332 56.5992 172.905 44.2373 158.816 35.6034C144.727 26.9695 128.524 22.4 112 22.4V0Z" fill="url(#paint0_linear_312_583)"/>
</g>
<defs>
<linearGradient id="paint0_linear_312_583" x1="-3.7708e-07" y1="113.067" x2="224" y2="113.067" gradientUnits="userSpaceOnUse">
<stop stop-color="#EC4899"/>
<stop offset="0.526042" stop-color="#A855F7"/>
<stop offset="1" stop-color="#3B82F6"/>
</linearGradient>
</defs>
</svg>
